# xmcd
#
# Track frame offsets: 
#        150
#        19610
#        40472
#        58367
#        77402
#        102597
#        120702
#        139147
#        162257
#        187830
#        207267
#        229070
#        250340
#        272987
#        294367
#        319172
#        337820
#        338145
#        338470
#        338795
#        339120
#        339445
#        339770
#        340167
#
# Disc length: 4693 seconds
#
# Revision: 19
# Processed by: cddbd v1.5.2PL0 Copyright (c) Steve Scherf et al.
# Submitted via: ExactAudioCopy v1.0b3
#
DISCID=5d125318
DTITLE=???? - ID
DYEAR=1999
DGENRE=J-Rock
TTITLE0=????????????
TTITLE1=?????
TTITLE2=LIKE A HARD RAIN
TTITLE3=BREAK OUT!
TTITLE4=?????
TTITLE5=??
TTITLE6=????????
TTITLE7=Sweet Emotion
TTITLE8=????????
TTITLE9=??????
TTITLE10=?????
TTITLE11=Bad Girls
TTITLE12=???????
TTITLE13=Nostalgia
TTITLE14=Lovin' you
TTITLE15=?? (Acoustic Version)
TTITLE16=17
TTITLE17=18
TTITLE18=19
TTITLE19=20
TTITLE20=21
TTITLE21=22
TTITLE22=23
TTITLE23=COSMIC LOVE (Acoustic Version)
EXTD=YEAR: 1999
EXTT0=
EXTT1=
EXTT2=
EXTT3=
EXTT4=
EXTT5=
EXTT6=
EXTT7=
EXTT8=
EXTT9=
EXTT10=
EXTT11=
EXTT12=
EXTT13=
EXTT14=
EXTT15=
EXTT16=
EXTT17=
EXTT18=
EXTT19=
EXTT20=
EXTT21=
EXTT22=
EXTT23=
PLAYORDER=
